<svg width="60" height="60" viewBox="0 0 60 60" fill="none" xmlns="http://www.w3.org/2000/svg">
<g filter="url(#filter0_dd_611_3143)">
<path d="M10 20L9.64646 19.6464L9.29291 20L9.64646 20.3536L10 20ZM49.5 25C49.5 25.2761 49.7239 25.5 50 25.5C50.2762 25.5 50.5 25.2761 50.5 25L49.5 25ZM19.6465 9.64645L9.64646 19.6464L10.3536 20.3536L20.3536 10.3536L19.6465 9.64645ZM9.64646 20.3536L19.6465 30.3536L20.3536 29.6464L10.3536 19.6464L9.64646 20.3536ZM10 20.5L48 20.5L48 19.5L10 19.5L10 20.5ZM49.5 22L49.5 25L50.5 25L50.5 22L49.5 22ZM48 20.5C48.8284 20.5 49.5 21.1716 49.5 22L50.5 22C50.5 20.6193 49.3807 19.5 48 19.5L48 20.5Z" fill="#007AFF"/>
</g>
<g filter="url(#filter1_dd_611_3143)">
<path d="M50 40L50.3536 39.6464L50.7071 40L50.3536 40.3536L50 40ZM9.50002 40L9.50002 39.5H9.50002L9.50002 40ZM7.00002 35C7.00002 34.7239 7.22387 34.5 7.50002 34.5C7.77616 34.5 8.00002 34.7239 8.00002 35L7.00002 35ZM40.3536 29.6464L50.3536 39.6464L49.6465 40.3536L39.6465 30.3536L40.3536 29.6464ZM50.3536 40.3536L40.3536 50.3536L39.6465 49.6464L49.6465 39.6464L50.3536 40.3536ZM50 40.5L9.50002 40.5L9.50002 39.5L50 39.5L50 40.5ZM7.00002 38L7.00002 35L8.00002 35L8.00002 38L7.00002 38ZM9.50002 40.5C8.11931 40.5 7.00002 39.3807 7.00002 38L8.00002 38C8.00002 38.8284 8.67159 39.5 9.50002 39.5L9.50002 40.5Z" fill="#007AFF"/>
</g>
<defs>
<filter id="filter0_dd_611_3143" x="5.29291" y="9.64645" width="49.2071" height="28.7071" filterUnits="userSpaceOnUse" color-interpolation-filters="sRGB">
<feFlood flood-opacity="0" result="BackgroundImageFix"/>
<feColorMatrix in="SourceAlpha" type="matrix" values="0 0 0 0 0 0 0 0 0 0 0 0 0 0 0 0 0 0 127 0" result="hardAlpha"/>
<feOffset dy="4"/>
<feGaussianBlur stdDeviation="2"/>
<feComposite in2="hardAlpha" operator="out"/>
<feColorMatrix type="matrix" values="0 0 0 0 0 0 0 0 0 0 0 0 0 0 0 0 0 0 0.25 0"/>
<feBlend mode="normal" in2="BackgroundImageFix" result="effect1_dropShadow_611_3143"/>
<feColorMatrix in="SourceAlpha" type="matrix" values="0 0 0 0 0 0 0 0 0 0 0 0 0 0 0 0 0 0 127 0" result="hardAlpha"/>
<feOffset dy="4"/>
<feGaussianBlur stdDeviation="2"/>
<feComposite in2="hardAlpha" operator="out"/>
<feColorMatrix type="matrix" values="0 0 0 0 0 0 0 0 0 0 0 0 0 0 0 0 0 0 0.25 0"/>
<feBlend mode="normal" in2="effect1_dropShadow_611_3143" result="effect2_dropShadow_611_3143"/>
<feBlend mode="normal" in="SourceGraphic" in2="effect2_dropShadow_611_3143" result="shape"/>
</filter>
<filter id="filter1_dd_611_3143" x="3.00002" y="29.6465" width="51.7071" height="28.7071" filterUnits="userSpaceOnUse" color-interpolation-filters="sRGB">
<feFlood flood-opacity="0" result="BackgroundImageFix"/>
<feColorMatrix in="SourceAlpha" type="matrix" values="0 0 0 0 0 0 0 0 0 0 0 0 0 0 0 0 0 0 127 0" result="hardAlpha"/>
<feOffset dy="4"/>
<feGaussianBlur stdDeviation="2"/>
<feComposite in2="hardAlpha" operator="out"/>
<feColorMatrix type="matrix" values="0 0 0 0 0 0 0 0 0 0 0 0 0 0 0 0 0 0 0.25 0"/>
<feBlend mode="normal" in2="BackgroundImageFix" result="effect1_dropShadow_611_3143"/>
<feColorMatrix in="SourceAlpha" type="matrix" values="0 0 0 0 0 0 0 0 0 0 0 0 0 0 0 0 0 0 127 0" result="hardAlpha"/>
<feOffset dy="4"/>
<feGaussianBlur stdDeviation="2"/>
<feComposite in2="hardAlpha" operator="out"/>
<feColorMatrix type="matrix" values="0 0 0 0 0 0 0 0 0 0 0 0 0 0 0 0 0 0 0.25 0"/>
<feBlend mode="normal" in2="effect1_dropShadow_611_3143" result="effect2_dropShadow_611_3143"/>
<feBlend mode="normal" in="SourceGraphic" in2="effect2_dropShadow_611_3143" result="shape"/>
</filter>
</defs>
</svg>
