<svg width="31" height="34" viewBox="0 0 31 34" fill="none" xmlns="http://www.w3.org/2000/svg">
<g filter="url(#filter0_dd_611_3130)">
<path d="M6 10L5.64645 9.64645L5.2929 10L5.64645 10.3536L6 10ZM25.5 12.5C25.5 12.7761 25.7239 13 26 13C26.2761 13 26.5 12.7761 26.5 12.5L25.5 12.5ZM10.6464 4.64645L5.64645 9.64645L6.35356 10.3536L11.3536 5.35355L10.6464 4.64645ZM5.64645 10.3536L10.6464 15.3536L11.3536 14.6464L6.35356 9.64645L5.64645 10.3536ZM6 10.5L24 10.5L24 9.5L6 9.5L6 10.5ZM25.5 12L25.5 12.5L26.5 12.5L26.5 12L25.5 12ZM24 10.5C24.8284 10.5 25.5 11.1716 25.5 12L26.5 12C26.5 10.6193 25.3807 9.5 24 9.5L24 10.5Z" fill="#222222"/>
</g>
<g filter="url(#filter1_dd_611_3130)">
<path d="M26 20L26.3536 19.6464L26.7071 20L26.3536 20.3536L26 20ZM6.75 20L6.75 20.5L6.75 20.5L6.75 20ZM4.25 17.5C4.25 17.2239 4.47386 17 4.75 17C5.02614 17 5.25 17.2239 5.25 17.5L4.25 17.5ZM21.3536 14.6464L26.3536 19.6464L25.6464 20.3536L20.6464 15.3536L21.3536 14.6464ZM26.3536 20.3536L21.3536 25.3536L20.6464 24.6464L25.6464 19.6464L26.3536 20.3536ZM26 20.5L6.75 20.5L6.75 19.5L26 19.5L26 20.5ZM4.25 18L4.25 17.5L5.25 17.5L5.25 18L4.25 18ZM6.75 20.5C5.36929 20.5 4.25 19.3807 4.25 18L5.25 18C5.25 18.8284 5.92157 19.5 6.75 19.5L6.75 20.5Z" fill="#222222"/>
</g>
<defs>
<filter id="filter0_dd_611_3130" x="1.29289" y="4.64645" width="29.2071" height="18.7071" filterUnits="userSpaceOnUse" color-interpolation-filters="sRGB">
<feFlood flood-opacity="0" result="BackgroundImageFix"/>
<feColorMatrix in="SourceAlpha" type="matrix" values="0 0 0 0 0 0 0 0 0 0 0 0 0 0 0 0 0 0 127 0" result="hardAlpha"/>
<feOffset dy="4"/>
<feGaussianBlur stdDeviation="2"/>
<feComposite in2="hardAlpha" operator="out"/>
<feColorMatrix type="matrix" values="0 0 0 0 0 0 0 0 0 0 0 0 0 0 0 0 0 0 0.25 0"/>
<feBlend mode="normal" in2="BackgroundImageFix" result="effect1_dropShadow_611_3130"/>
<feColorMatrix in="SourceAlpha" type="matrix" values="0 0 0 0 0 0 0 0 0 0 0 0 0 0 0 0 0 0 127 0" result="hardAlpha"/>
<feOffset dy="4"/>
<feGaussianBlur stdDeviation="2"/>
<feComposite in2="hardAlpha" operator="out"/>
<feColorMatrix type="matrix" values="0 0 0 0 0 0 0 0 0 0 0 0 0 0 0 0 0 0 0.25 0"/>
<feBlend mode="normal" in2="effect1_dropShadow_611_3130" result="effect2_dropShadow_611_3130"/>
<feBlend mode="normal" in="SourceGraphic" in2="effect2_dropShadow_611_3130" result="shape"/>
</filter>
<filter id="filter1_dd_611_3130" x="0.250002" y="14.6465" width="30.4571" height="18.7071" filterUnits="userSpaceOnUse" color-interpolation-filters="sRGB">
<feFlood flood-opacity="0" result="BackgroundImageFix"/>
<feColorMatrix in="SourceAlpha" type="matrix" values="0 0 0 0 0 0 0 0 0 0 0 0 0 0 0 0 0 0 127 0" result="hardAlpha"/>
<feOffset dy="4"/>
<feGaussianBlur stdDeviation="2"/>
<feComposite in2="hardAlpha" operator="out"/>
<feColorMatrix type="matrix" values="0 0 0 0 0 0 0 0 0 0 0 0 0 0 0 0 0 0 0.25 0"/>
<feBlend mode="normal" in2="BackgroundImageFix" result="effect1_dropShadow_611_3130"/>
<feColorMatrix in="SourceAlpha" type="matrix" values="0 0 0 0 0 0 0 0 0 0 0 0 0 0 0 0 0 0 127 0" result="hardAlpha"/>
<feOffset dy="4"/>
<feGaussianBlur stdDeviation="2"/>
<feComposite in2="hardAlpha" operator="out"/>
<feColorMatrix type="matrix" values="0 0 0 0 0 0 0 0 0 0 0 0 0 0 0 0 0 0 0.25 0"/>
<feBlend mode="normal" in2="effect1_dropShadow_611_3130" result="effect2_dropShadow_611_3130"/>
<feBlend mode="normal" in="SourceGraphic" in2="effect2_dropShadow_611_3130" result="shape"/>
</filter>
</defs>
</svg>
