<svg width="45" height="46" viewBox="0 0 45 46" fill="none" xmlns="http://www.w3.org/2000/svg">
<g filter="url(#filter0_dd_611_3143)">
<path d="M7.50001 15L7.14645 14.6464L6.7929 15L7.14645 15.3536L7.50001 15ZM37 18.75C37 19.0261 37.2239 19.25 37.5 19.25C37.7761 19.25 38 19.0261 38 18.75L37 18.75ZM14.6465 7.14645L7.14645 14.6464L7.85356 15.3536L15.3536 7.85355L14.6465 7.14645ZM7.14645 15.3536L14.6465 22.8536L15.3536 22.1464L7.85356 14.6464L7.14645 15.3536ZM7.50001 15.5L35.5 15.5L35.5 14.5L7.50001 14.5L7.50001 15.5ZM37 17L37 18.75L38 18.75L38 17L37 17ZM35.5 15.5C36.3284 15.5 37 16.1716 37 17L38 17C38 15.6193 36.8807 14.5 35.5 14.5L35.5 15.5Z" fill="#007AFF"/>
</g>
<g filter="url(#filter1_dd_611_3143)">
<path d="M37.5 30L37.8536 29.6464L38.2071 30L37.8536 30.3536L37.5 30ZM7.62501 30L7.62501 29.5H7.62501L7.62501 30ZM5.12501 26.25C5.12501 25.9739 5.34887 25.75 5.62501 25.75C5.90115 25.75 6.12501 25.9739 6.12501 26.25L5.12501 26.25ZM30.3536 22.1464L37.8536 29.6464L37.1465 30.3536L29.6465 22.8536L30.3536 22.1464ZM37.8536 30.3536L30.3536 37.8536L29.6465 37.1464L37.1465 29.6464L37.8536 30.3536ZM37.5 30.5L7.62501 30.5L7.62501 29.5L37.5 29.5L37.5 30.5ZM5.12501 28L5.12501 26.25L6.12501 26.25L6.12501 28L5.12501 28ZM7.62501 30.5C6.2443 30.5 5.12501 29.3807 5.12501 28L6.12501 28C6.12501 28.8284 6.79658 29.5 7.62501 29.5L7.62501 30.5Z" fill="#007AFF"/>
</g>
<defs>
<filter id="filter0_dd_611_3143" x="2.7929" y="7.14645" width="39.2071" height="23.7071" filterUnits="userSpaceOnUse" color-interpolation-filters="sRGB">
<feFlood flood-opacity="0" result="BackgroundImageFix"/>
<feColorMatrix in="SourceAlpha" type="matrix" values="0 0 0 0 0 0 0 0 0 0 0 0 0 0 0 0 0 0 127 0" result="hardAlpha"/>
<feOffset dy="4"/>
<feGaussianBlur stdDeviation="2"/>
<feComposite in2="hardAlpha" operator="out"/>
<feColorMatrix type="matrix" values="0 0 0 0 0 0 0 0 0 0 0 0 0 0 0 0 0 0 0.25 0"/>
<feBlend mode="normal" in2="BackgroundImageFix" result="effect1_dropShadow_611_3143"/>
<feColorMatrix in="SourceAlpha" type="matrix" values="0 0 0 0 0 0 0 0 0 0 0 0 0 0 0 0 0 0 127 0" result="hardAlpha"/>
<feOffset dy="4"/>
<feGaussianBlur stdDeviation="2"/>
<feComposite in2="hardAlpha" operator="out"/>
<feColorMatrix type="matrix" values="0 0 0 0 0 0 0 0 0 0 0 0 0 0 0 0 0 0 0.25 0"/>
<feBlend mode="normal" in2="effect1_dropShadow_611_3143" result="effect2_dropShadow_611_3143"/>
<feBlend mode="normal" in="SourceGraphic" in2="effect2_dropShadow_611_3143" result="shape"/>
</filter>
<filter id="filter1_dd_611_3143" x="1.12501" y="22.1465" width="41.0821" height="23.7071" filterUnits="userSpaceOnUse" color-interpolation-filters="sRGB">
<feFlood flood-opacity="0" result="BackgroundImageFix"/>
<feColorMatrix in="SourceAlpha" type="matrix" values="0 0 0 0 0 0 0 0 0 0 0 0 0 0 0 0 0 0 127 0" result="hardAlpha"/>
<feOffset dy="4"/>
<feGaussianBlur stdDeviation="2"/>
<feComposite in2="hardAlpha" operator="out"/>
<feColorMatrix type="matrix" values="0 0 0 0 0 0 0 0 0 0 0 0 0 0 0 0 0 0 0.25 0"/>
<feBlend mode="normal" in2="BackgroundImageFix" result="effect1_dropShadow_611_3143"/>
<feColorMatrix in="SourceAlpha" type="matrix" values="0 0 0 0 0 0 0 0 0 0 0 0 0 0 0 0 0 0 127 0" result="hardAlpha"/>
<feOffset dy="4"/>
<feGaussianBlur stdDeviation="2"/>
<feComposite in2="hardAlpha" operator="out"/>
<feColorMatrix type="matrix" values="0 0 0 0 0 0 0 0 0 0 0 0 0 0 0 0 0 0 0.25 0"/>
<feBlend mode="normal" in2="effect1_dropShadow_611_3143" result="effect2_dropShadow_611_3143"/>
<feBlend mode="normal" in="SourceGraphic" in2="effect2_dropShadow_611_3143" result="shape"/>
</filter>
</defs>
</svg>
